<svg width="264" height="63" viewBox="0 0 264 63" fill="none" xmlns="http://www.w3.org/2000/svg">
<path d="M9 54C37.2739 44.4996 84.3946 28.6138 113.855 23.3781C131.953 20.1618 150.219 18.0998 168.463 15.9348C178.922 14.6936 204.016 12.9883 214.5 12.3152C215.194 12.2706 201.504 6 201.504 12.3152C194.358 9.72928 184.698 9.99146 177.376 10.021C140.871 10.1684 103.766 17.2391 72.6694 36.6332C67.2419 40.0182 62.8159 44.1914 57.7113 47.8491C57.2199 48.2012 55.6899 49.4667 57.7113 48.8177C65.3309 46.3716 72.2977 42.5224 80.1485 40.6098C85.895 39.2098 91.8338 38.5785 97.6679 37.6528C102.437 36.8962 106.927 35.1033 111.704 34.492C118.525 33.6193 125.425 33.8391 132.246 33.0136C138.176 32.2957 143.959 30.5938 149.919 30.1076C160.403 29.2524 171.355 29.1607 181.884 28.986C191.802 28.8215 162.943 24.1709 153.412 26.9059C142.17 23.6108 132.529 37.2152 121.097 37.6528C123.636 30.7194 83.9845 40.8736 81.9995 41.8843C75.1872 45.353 133.813 40.7211 134.661 40.6098C146.691 39.0305 161.79 37.6528 161.79 37.6528C161.79 37.6528 186.909 35.9124 190.514 34.492C197.071 34.492 191.757 34.4442 197.695 33.7783C204.087 33.0615 213.24 33.6503 219.638 33.0136C226.432 32.3374 245.723 33.0136 254.5 33.0136" stroke="#F9FE12" stroke-width="18" stroke-linecap="round"/>
</svg>
